PathFileType	4	(X/Y/Z)	Walk8.trc
DataRate	CameraRate	NumFrames	NumMarkers	Units	OrigDataRate	OrigDataStartFrame	OrigNumFrames
200.000000	200.000000	8	59	mm	200.000000	745	1039
Frame#	Times		RFA1		LFHD		RFHD		RCAR		RWRR		RACR1		LMT1		RUA1		LTH3		LTB1		LLFC		LACR1		LTB2		LToe		LASI		LTB3		LElbow		LUA1		RASI		RLFC		CLAV		STRN		RTH3		LWRU		LFA1		RBack		RMT5		RMT1		LCAR		RCAL		LTH4		RTB2		RToe		RLMAL		LTH1		LBHD		LPSI		RPSI		RTH1		RTB1		RTH2		RTB4		RTB3		LTB4		C7		RElbowM		RBHD		LMT5		RElbow		RMMAL		LWRR		RTH4		LTH2		LLMAL		LMMAL		T10		RWRU		LCAL		LElbowM
			X1	Y1	Z1	X2	Y2	Z2	X3	Y3	Z3	X4	Y4	Z4	X5	Y5	Z5	X6	Y6	Z6	X7	Y7	Z7	X8	Y8	Z8	X9	Y9	Z9	X10	Y10	Z10	X11	Y11	Z11	X12	Y12	Z12	X13	Y13	Z13	X14	Y14	Z14	X15	Y15	Z15	X16	Y16	Z16	X17	Y17	Z17	X18	Y18	Z18	X19	Y19	Z19	X20	Y20	Z20	X21	Y21	Z21	X22	Y22	Z22	X23	Y23	Z23	X24	Y24	Z24	X25	Y25	Z25	X26	Y26	Z26	X27	Y27	Z27	X28	Y28	Z28	X29	Y29	Z29	X30	Y30	Z30	X31	Y31	Z31	X32	Y32	Z32	X33	Y33	Z33	X34	Y34	Z34	X35	Y35	Z35	X36	Y36	Z36	X37	Y37	Z37	X38	Y38	Z38	X39	Y39	Z39	X40	Y40	Z40	X41	Y41	Z41	X42	Y42	Z42	X43	Y43	Z43	X44	Y44	Z44	X45	Y45	Z45	X46	Y46	Z46	X47	Y47	Z47	X48	Y48	Z48	X49	Y49	Z49	X50	Y50	Z50	X51	Y51	Z51	X52	Y52	Z52	X53	Y53	Z53	X54	Y54	Z54	X55	Y55	Z55	X56	Y56	Z56	X57	Y57	Z57	X58	Y58	Z58	X59	Y59	Z59

745	3.725	-510.96	944.59	304.66	-368.93	1580.8	-64.734	-359.25	1582.4	33.145	-493.38	781.21	315.21	-526.52	839.81	336.62	-493.77	1376	165.19	-328.02	35.028	-34.249	-531.62	1233.2	254.94	-426.41	561.65	-174.54	-405.38	335.81	-50.756	-438.25	487.11	-155.83	-472.82	1356.6	-191.43	-414.77	252.98	-116.44	-286.03	31.255	-35.029	-397.05	966.57	-177.18	-419.5	164.79	-55.988	-563.43	1075.8	-304.25	-490.54	1210	-267.05	-419.65	957.09	167.75	-519.42	455.11	192.3	-409.93	1337.7	-10.075	-349.87	1221.3	-3.0189	-513.19	541.86	198.42	-568.65	834.96	-369.16	-528.46	946.68	-335.66	-632.1	1316.9	86.271	-758.66	59.286	133.49	-726.16	73.056	55.378	-538.11	782.47	-368.07	-855.7	204.18	93.125	-430.36	644.64	-203.92	-621.52	303.15	167.29	-700.33	40.97	64.776	-801.11	184.3	142.89	-430.97	724.93	-232.31	-520.97	1554.7	-78.17	-639.82	986.41	-115.72	-663.77	979.98	17.438	-496.96	710.77	222.04	-536.72	335.98	113.3	-451.38	626.55	198.25	-609.64	291.85	108.28	-675.61	235.57	102.65	-416.03	250.74	-54.892	-570.41	1416.3	-7.4989	-611.75	1057.4	207.03	-529.14	1567.7	57.276	-345.57	25.997	-124.59	-577.27	1072.5	291.81	-769.94	183.97	62.518	-520.8	825.28	-312.66	-510.29	627.9	209.84	-377.05	654.88	-177.71	-462.61	67.861	-115.65	-453.61	73.68	-30.351	-627.64	1086.4	-22.769	-493.25	839.21	270.15	-517.21	28.393	-73.473	-581.66	1039.2	-205.12
746	3.73	-508.03	945.03	303.86	-364.34	1581.2	-65.301	-354.8	1582.8	32.573	-491.04	781.52	314.11	-523.95	840.23	335.62	-489.99	1376.6	164.64	-328.01	35.004	-34.258	-528.19	1233.9	254.35	-425.07	561.47	-174.5	-405.09	335.76	-50.593	-437.01	487.03	-155.82	-468.36	1356.8	-192.15	-414.36	252.9	-116.31	-285.97	31.236	-35.13	-392.97	966.66	-177.51	-419.35	164.68	-55.942	-557.26	1075.4	-305.33	-485.26	1210.1	-267.79	-415.62	957.74	167.57	-510.88	456.23	193.26	-405.61	1338.1	-10.662	-345.6	1221.8	-3.7019	-505.42	542.82	199.2	-559.64	834.44	-369.66	-520.86	946.64	-336.19	-627.99	1317.4	85.25	-749.35	60.853	133.14	-716.6	74.521	55.122	-528.41	782.4	-368.38	-846.79	205.19	92.004	-428.57	644.53	-203.73	-613.02	304.42	167.64	-690.72	42.513	64.73	-792.31	185.57	142.06	-428.68	724.84	-232.07	-516.38	1555.2	-78.918	-635.63	986.75	-115.92	-659.64	980.31	17.259	-491.18	712	222.49	-527.79	337.08	114.25	-444.58	628.27	198.89	-600.77	292.82	108.72	-666.66	236.73	102.72	-415.78	250.64	-54.794	-565.99	1416.8	-8.3765	-608.45	1058.3	206.29	-524.69	1568.2	56.527	-345.57	25.979	-124.6	-573.91	1073.1	291.04	-760.71	185.25	61.907	-511.99	825.43	-312.89	-503.56	628.92	210.31	-375.05	654.34	-177.84	-462.59	67.858	-115.61	-453.57	73.694	-30.28	-623.3	1086.9	-23.229	-490.58	839.66	269.24	-517.23	28.412	-73.477	-576.26	1039	-206.14
747	3.735	-505.08	945.44	303.09	-359.77	1581.6	-65.833	-350.37	1583.2	32.035	-488.64	781.82	313.08	-521.35	840.61	334.68	-486.19	1377.2	164.13	-328	34.979	-34.27	-524.78	1234.5	253.79	-423.66	561.31	-174.43	-404.82	335.72	-50.418	-435.76	486.96	-155.8	-463.89	1356.9	-192.85	-413.95	252.84	-116.16	-285.92	31.213	-35.232	-388.92	966.68	-177.84	-419.22	164.58	-55.871	-551.05	1075.1	-306.4	-480.02	1210.1	-268.49	-411.64	958.32	167.41	-502.39	457.4	194.2	-401.31	1338.5	-11.222	-341.35	1222.3	-4.3311	-497.67	543.86	199.97	-550.57	833.93	-370.13	-513.21	946.6	-336.69	-623.87	1317.8	84.276	-739.59	62.223	132.8	-706.64	75.821	54.852	-518.64	782.37	-368.66	-837.65	205.82	90.884	-426.74	644.42	-203.5	-604.39	305.61	167.98	-680.64	43.956	64.66	-783.24	186.55	141.24	-426.36	724.76	-231.8	-511.81	1555.6	-79.629	-631.44	987.06	-116.12	-655.53	980.64	17.069	-485.39	713.27	222.97	-518.76	338.18	115.19	-437.78	630.04	199.52	-591.78	293.7	109.12	-657.51	237.76	102.77	-415.55	250.55	-54.679	-561.57	1417.2	-9.1935	-605.15	1059	205.59	-520.25	1568.6	55.813	-345.57	25.96	-124.61	-570.55	1073.7	290.3	-751.23	186.29	61.286	-503.14	825.6	-313.1	-496.83	630	210.78	-373.03	653.82	-177.92	-462.57	67.86	-115.57	-453.55	73.717	-30.209	-618.99	1087.4	-23.688	-487.88	840.07	268.39	-517.26	28.435	-73.483	-570.83	1038.8	-207.15
748	3.74	-502.12	945.81	302.36	-355.22	1582	-66.329	-345.96	1583.6	31.53	-486.2	782.1	312.13	-518.73	840.97	333.77	-482.38	1377.7	163.65	-327.99	34.954	-34.285	-521.38	1235.1	253.23	-422.17	561.16	-174.32	-404.58	335.69	-50.237	-434.53	486.9	-155.77	-459.41	1357	-193.52	-413.54	252.79	-116	-285.86	31.188	-35.337	-384.88	966.62	-178.18	-419.11	164.51	-55.776	-544.83	1074.7	-307.45	-474.81	1210.2	-269.15	-407.71	958.83	167.28	-493.93	458.61	195.11	-397.02	1338.9	-11.758	-337.1	1222.7	-4.9028	-489.95	544.96	200.73	-541.43	833.44	-370.57	-505.52	946.56	-337.15	-619.75	1318.2	83.351	-729.39	63.393	132.49	-696.28	76.945	54.59	-508.8	782.39	-368.93	-828.28	206.07	89.778	-424.85	644.34	-203.24	-595.63	306.7	168.31	-670.11	45.282	64.592	-773.9	187.24	140.43	-424.01	724.69	-231.52	-507.24	1556	-80.303	-627.26	987.35	-116.33	-651.44	980.96	16.87	-479.59	714.58	223.47	-509.64	339.29	116.09	-431	631.84	200.15	-582.68	294.49	109.49	-648.16	238.65	102.82	-415.34	250.49	-54.553	-557.15	1417.7	-9.9515	-601.84	1059.7	204.91	-515.83	1569	55.134	-345.56	25.942	-124.62	-567.21	1074.3	289.58	-741.5	187.08	60.665	-494.26	825.78	-313.27	-490.09	631.13	211.27	-370.97	653.34	-177.94	-462.54	67.868	-115.54	-453.54	73.747	-30.142	-614.68	1087.8	-24.146	-485.17	840.44	267.6	-517.28	28.463	-73.493	-565.37	1038.5	-208.14
749	3.745	-499.14	946.15	301.66	-350.68	1582.4	-66.791	-341.56	1583.9	31.058	-483.69	782.37	311.24	-516.08	841.31	332.92	-478.55	1378.2	163.21	-327.98	34.929	-34.303	-517.98	1235.6	252.67	-420.6	561.04	-174.18	-404.35	335.68	-50.057	-433.31	486.84	-155.74	-454.93	1357	-194.16	-413.14	252.75	-115.83	-285.8	31.16	-35.443	-380.87	966.48	-178.52	-419.03	164.47	-55.662	-538.57	1074.3	-308.48	-469.62	1210.2	-269.77	-403.84	959.29	167.19	-485.5	459.85	195.98	-392.74	1339.2	-12.269	-332.87	1223.1	-5.4129	-482.25	546.12	201.47	-532.24	832.97	-370.99	-497.8	946.52	-337.57	-615.63	1318.6	82.477	-718.75	64.361	132.23	-685.53	77.883	54.359	-498.89	782.44	-369.18	-818.69	205.93	88.696	-422.89	644.27	-202.96	-586.75	307.7	168.62	-659.15	46.481	64.555	-764.3	187.63	139.64	-421.61	724.63	-231.22	-502.7	1556.4	-80.944	-623.08	987.61	-116.54	-647.35	981.28	16.664	-473.79	715.91	223.98	-500.43	340.39	116.96	-424.22	633.67	200.77	-573.46	295.19	109.84	-638.63	239.39	102.86	-415.17	250.44	-54.42	-552.75	1418.1	-10.653	-598.52	1060.3	204.25	-511.41	1569.3	54.491	-345.56	25.924	-124.64	-563.87	1074.8	288.9	-731.52	187.63	60.054	-485.34	825.98	-313.41	-483.35	632.3	211.75	-368.86	652.89	-177.92	-462.51	67.881	-115.51	-453.53	73.783	-30.078	-610.4	1088.2	-24.602	-482.42	840.78	266.85	-517.29	28.495	-73.505	-559.89	1038.2	-209.13
750	3.75	-496.15	946.46	300.99	-346.15	1582.7	-67.22	-337.18	1584.2	30.617	-481.13	782.63	310.43	-513.4	841.62	332.11	-474.68	1378.6	162.79	-327.96	34.905	-34.325	-514.58	1236	252.13	-418.94	560.94	-174.01	-404.13	335.68	-49.881	-432.12	486.81	-155.71	-450.45	1357.1	-194.76	-412.76	252.72	-115.66	-285.73	31.131	-35.551	-376.87	966.29	-178.85	-418.96	164.44	-55.533	-532.27	1073.9	-309.49	-464.47	1210.2	-270.35	-400.01	959.69	167.12	-477.09	461.11	196.8	-388.49	1339.5	-12.757	-328.65	1223.4	-5.8573	-474.58	547.32	202.18	-522.99	832.54	-371.38	-490.04	946.5	-337.95	-611.51	1318.9	81.654	-707.69	65.127	132.04	-674.41	78.627	54.184	-488.92	782.55	-369.4	-808.88	205.4	87.648	-420.84	644.22	-202.66	-577.74	308.6	168.92	-647.76	47.541	64.579	-754.45	187.74	138.88	-419.13	724.57	-230.91	-498.16	1556.8	-81.55	-618.91	987.84	-116.75	-643.27	981.59	16.452	-467.98	717.25	224.5	-491.14	341.48	117.8	-417.46	635.5	201.37	-564.13	295.81	110.17	-628.91	240	102.89	-415.01	250.41	-54.284	-548.35	1418.5	-11.302	-595.18	1060.9	203.61	-507	1569.6	53.881	-345.56	25.906	-124.66	-560.54	1075.3	288.24	-721.31	187.92	59.466	-476.4	826.21	-313.51	-476.61	633.5	212.24	-366.7	652.47	-177.82	-462.48	67.898	-115.49	-453.53	73.822	-30.02	-606.13	1088.7	-25.055	-479.66	841.08	266.16	-517.31	28.532	-73.518	-554.37	1037.8	-210.11
751	3.755	-493.13	946.74	300.35	-341.64	1583	-67.618	-332.81	1584.4	30.208	-478.52	782.87	309.7	-510.69	841.9	331.36	-470.79	1379	162.39	-327.95	34.882	-34.349	-511.15	1236.4	251.58	-417.19	560.86	-173.8	-403.93	335.69	-49.713	-430.96	486.78	-155.68	-445.96	1357.1	-195.32	-412.39	252.71	-115.5	-285.65	31.1	-35.661	-372.88	966.03	-179.19	-418.91	164.44	-55.394	-525.95	1073.5	-310.47	-459.34	1210.2	-270.9	-396.21	960.05	167.09	-468.69	462.37	197.58	-384.24	1339.8	-13.223	-324.44	1223.6	-6.2323	-466.93	548.54	202.87	-513.69	832.15	-371.75	-482.23	946.5	-338.29	-607.38	1319.2	80.88	-696.23	65.697	131.95	-662.91	79.173	54.088	-478.9	782.72	-369.59	-798.85	204.49	86.643	-418.71	644.18	-202.35	-568.61	309.38	169.22	-635.96	48.455	64.693	-744.36	187.56	138.17	-416.57	724.51	-230.59	-493.64	1557.1	-82.124	-614.76	988.06	-116.97	-639.19	981.91	16.237	-462.16	718.59	225.02	-481.78	342.55	118.6	-410.7	637.34	201.96	-554.67	296.35	110.48	-619.01	240.46	102.91	-414.87	250.39	-54.15	-543.96	1418.9	-11.903	-591.82	1061.4	202.97	-502.6	1569.9	53.306	-345.55	25.887	-124.68	-557.22	1075.7	287.6	-710.87	187.95	58.912	-467.44	826.45	-313.56	-469.87	634.72	212.72	-364.48	652.09	-177.67	-462.45	67.92	-115.47	-453.54	73.862	-29.969	-601.89	1089	-25.504	-476.86	841.35	265.52	-517.32	28.571	-73.531	-548.83	1037.5	-211.08
752	3.76	-490.08	946.99	299.73	-337.15	1583.3	-67.984	-328.45	1584.7	29.828	-475.86	783.1	309.04	-507.95	842.17	330.65	-466.87	1379.3	162.01	-327.93	34.86	-34.377	-507.7	1236.8	251.03	-415.35	560.8	-173.55	-403.73	335.69	-49.554	-429.85	486.78	-155.65	-441.46	1357.1	-195.85	-412.04	252.7	-115.34	-285.57	31.068	-35.771	-368.9	965.73	-179.53	-418.85	164.44	-55.251	-519.6	1073.1	-311.43	-454.24	1210.2	-271.41	-392.45	960.36	167.11	-460.32	463.61	198.31	-380.01	1340	-13.665	-320.24	1223.8	-6.535	-459.3	549.78	203.53	-504.32	831.81	-372.09	-474.39	946.51	-338.57	-603.25	1319.5	80.153	-684.38	66.073	131.98	-651.05	79.515	54.096	-468.82	782.94	-369.75	-788.6	203.2	85.69	-416.47	644.15	-202.01	-559.35	310.05	169.51	-623.77	49.218	64.924	-734.02	187.09	137.52	-413.91	724.44	-230.27	-489.14	1557.5	-82.666	-610.61	988.25	-117.2	-635.1	982.22	16.019	-456.35	719.92	225.54	-472.35	343.61	119.36	-403.97	639.17	202.53	-545.09	296.82	110.78	-608.94	240.77	102.94	-414.75	250.38	-54.021	-539.59	1419.2	-12.461	-588.43	1061.8	202.34	-498.21	1570.2	52.765	-345.55	25.867	-124.7	-553.91	1076.1	286.98	-700.2	187.72	58.404	-458.45	826.72	-313.57	-463.13	635.95	213.19	-362.19	651.73	-177.43	-462.42	67.946	-115.44	-453.54	73.901	-29.924	-597.66	1089.4	-25.949	-474.04	841.59	264.93	-517.32	28.614	-73.541	-543.25	1037.1	-212.05
